<mxfile host="app.diagrams.net" modified="2024-04-16T10:45:04.016Z" agent="Mozilla/5.0 (X11; Ubuntu; Linux x86_64; rv:124.0) Gecko/20100101 Firefox/124.0" etag="W81QxNIdzg6kMDM732lq" version="24.2.5" type="device">
  <diagram name="Страница — 1" id="mcOqGrmZakbmRm7rEaYY">
    <mxGraphModel dx="1302" dy="1812" grid="1" gridSize="10" guides="1" tooltips="1" connect="1" arrows="1" fold="1" page="1" pageScale="1" pageWidth="827" pageHeight="1169" math="0" shadow="0">
      <root>
        <mxCell id="0" />
        <mxCell id="1" parent="0" />
        <mxCell id="2V6-yDLcgQNx7lDfl_qG-1" value="" style="rounded=0;whiteSpace=wrap;html=1;" vertex="1" parent="1">
          <mxGeometry x="40" y="60" width="160" height="120" as="geometry" />
        </mxCell>
        <mxCell id="2V6-yDLcgQNx7lDfl_qG-2" value="" style="shape=cross;whiteSpace=wrap;html=1;rotation=45;" vertex="1" parent="1">
          <mxGeometry x="230" y="95" width="50" height="50" as="geometry" />
        </mxCell>
        <mxCell id="2V6-yDLcgQNx7lDfl_qG-4" value="" style="rounded=0;whiteSpace=wrap;html=1;" vertex="1" parent="1">
          <mxGeometry x="310" y="40" width="80" height="160" as="geometry" />
        </mxCell>
        <mxCell id="2V6-yDLcgQNx7lDfl_qG-5" value="" style="shape=singleArrow;whiteSpace=wrap;html=1;" vertex="1" parent="1">
          <mxGeometry x="414" y="100" width="50" height="40" as="geometry" />
        </mxCell>
        <mxCell id="2V6-yDLcgQNx7lDfl_qG-6" value="" style="rounded=0;whiteSpace=wrap;html=1;" vertex="1" parent="1">
          <mxGeometry x="490" y="60" width="80" height="120" as="geometry" />
        </mxCell>
        <mxCell id="2V6-yDLcgQNx7lDfl_qG-7" value="" style="rounded=0;whiteSpace=wrap;html=1;" vertex="1" parent="1">
          <mxGeometry x="40" y="300" width="160" height="120" as="geometry" />
        </mxCell>
        <mxCell id="2V6-yDLcgQNx7lDfl_qG-8" value="" style="shape=cross;whiteSpace=wrap;html=1;rotation=45;" vertex="1" parent="1">
          <mxGeometry x="230" y="335" width="50" height="50" as="geometry" />
        </mxCell>
        <mxCell id="2V6-yDLcgQNx7lDfl_qG-9" value="" style="rounded=0;whiteSpace=wrap;html=1;" vertex="1" parent="1">
          <mxGeometry x="310" y="280" width="80" height="160" as="geometry" />
        </mxCell>
        <mxCell id="2V6-yDLcgQNx7lDfl_qG-10" value="" style="shape=singleArrow;whiteSpace=wrap;html=1;" vertex="1" parent="1">
          <mxGeometry x="414" y="340" width="50" height="40" as="geometry" />
        </mxCell>
        <mxCell id="2V6-yDLcgQNx7lDfl_qG-11" value="" style="rounded=0;whiteSpace=wrap;html=1;" vertex="1" parent="1">
          <mxGeometry x="490" y="300" width="80" height="120" as="geometry" />
        </mxCell>
        <mxCell id="2V6-yDLcgQNx7lDfl_qG-12" value="" style="rounded=0;whiteSpace=wrap;html=1;" vertex="1" parent="1">
          <mxGeometry x="40" y="540" width="160" height="120" as="geometry" />
        </mxCell>
        <mxCell id="2V6-yDLcgQNx7lDfl_qG-13" value="" style="shape=cross;whiteSpace=wrap;html=1;rotation=45;" vertex="1" parent="1">
          <mxGeometry x="230" y="575" width="50" height="50" as="geometry" />
        </mxCell>
        <mxCell id="2V6-yDLcgQNx7lDfl_qG-14" value="" style="rounded=0;whiteSpace=wrap;html=1;" vertex="1" parent="1">
          <mxGeometry x="310" y="520" width="80" height="160" as="geometry" />
        </mxCell>
        <mxCell id="2V6-yDLcgQNx7lDfl_qG-15" value="" style="shape=singleArrow;whiteSpace=wrap;html=1;" vertex="1" parent="1">
          <mxGeometry x="414" y="580" width="50" height="40" as="geometry" />
        </mxCell>
        <mxCell id="2V6-yDLcgQNx7lDfl_qG-16" value="" style="rounded=0;whiteSpace=wrap;html=1;" vertex="1" parent="1">
          <mxGeometry x="490" y="540" width="80" height="120" as="geometry" />
        </mxCell>
        <mxCell id="2V6-yDLcgQNx7lDfl_qG-17" value="&lt;font style=&quot;font-size: 30px;&quot;&gt;Input stationary&lt;/font&gt;" style="text;html=1;align=center;verticalAlign=middle;whiteSpace=wrap;rounded=0;" vertex="1" parent="1">
          <mxGeometry x="40" width="210" height="30" as="geometry" />
        </mxCell>
        <mxCell id="2V6-yDLcgQNx7lDfl_qG-18" value="&lt;font style=&quot;font-size: 30px;&quot;&gt;Weight stationary&lt;/font&gt;" style="text;html=1;align=center;verticalAlign=middle;whiteSpace=wrap;rounded=0;" vertex="1" parent="1">
          <mxGeometry x="40" y="240" width="240" height="30" as="geometry" />
        </mxCell>
        <mxCell id="2V6-yDLcgQNx7lDfl_qG-19" value="&lt;font style=&quot;font-size: 30px;&quot;&gt;Output stationary&lt;/font&gt;" style="text;html=1;align=center;verticalAlign=middle;whiteSpace=wrap;rounded=0;" vertex="1" parent="1">
          <mxGeometry x="40" y="480" width="240" height="30" as="geometry" />
        </mxCell>
        <mxCell id="2V6-yDLcgQNx7lDfl_qG-20" value="" style="rounded=0;whiteSpace=wrap;html=1;fillColor=#A3A3A3;fontColor=#333333;strokeColor=#000000;" vertex="1" parent="1">
          <mxGeometry x="40" y="60" width="80" height="20" as="geometry" />
        </mxCell>
        <mxCell id="2V6-yDLcgQNx7lDfl_qG-21" value="" style="rounded=0;whiteSpace=wrap;html=1;fillColor=#dae8fc;strokeColor=#000000;" vertex="1" parent="1">
          <mxGeometry x="310" y="40" width="20" height="80" as="geometry" />
        </mxCell>
        <mxCell id="2V6-yDLcgQNx7lDfl_qG-22" value="" style="rounded=0;whiteSpace=wrap;html=1;fillColor=#d5e8d4;strokeColor=#000000;" vertex="1" parent="1">
          <mxGeometry x="330" y="40" width="20" height="80" as="geometry" />
        </mxCell>
        <mxCell id="2V6-yDLcgQNx7lDfl_qG-23" value="" style="rounded=0;whiteSpace=wrap;html=1;fillColor=#ffe6cc;strokeColor=#000000;" vertex="1" parent="1">
          <mxGeometry x="350" y="40" width="20" height="80" as="geometry" />
        </mxCell>
        <mxCell id="2V6-yDLcgQNx7lDfl_qG-24" value="" style="rounded=0;whiteSpace=wrap;html=1;fillColor=#fff2cc;strokeColor=#000000;" vertex="1" parent="1">
          <mxGeometry x="370" y="40" width="20" height="80" as="geometry" />
        </mxCell>
        <mxCell id="2V6-yDLcgQNx7lDfl_qG-25" value="" style="rounded=0;whiteSpace=wrap;html=1;fillColor=#dae8fc;strokeColor=#000000;" vertex="1" parent="1">
          <mxGeometry x="490" y="60" width="20" height="20" as="geometry" />
        </mxCell>
        <mxCell id="2V6-yDLcgQNx7lDfl_qG-26" value="" style="rounded=0;whiteSpace=wrap;html=1;fillColor=#d5e8d4;strokeColor=#000000;" vertex="1" parent="1">
          <mxGeometry x="510" y="60" width="20" height="20" as="geometry" />
        </mxCell>
        <mxCell id="2V6-yDLcgQNx7lDfl_qG-27" value="" style="rounded=0;whiteSpace=wrap;html=1;fillColor=#ffe6cc;strokeColor=#000000;" vertex="1" parent="1">
          <mxGeometry x="530" y="60" width="20" height="20" as="geometry" />
        </mxCell>
        <mxCell id="2V6-yDLcgQNx7lDfl_qG-28" value="" style="rounded=0;whiteSpace=wrap;html=1;fillColor=#fff2cc;strokeColor=#000000;" vertex="1" parent="1">
          <mxGeometry x="550" y="60" width="20" height="20" as="geometry" />
        </mxCell>
        <mxCell id="2V6-yDLcgQNx7lDfl_qG-32" value="" style="rounded=0;whiteSpace=wrap;html=1;fillColor=#dae8fc;strokeColor=#000000;" vertex="1" parent="1">
          <mxGeometry x="40" y="300" width="80" height="20" as="geometry" />
        </mxCell>
        <mxCell id="2V6-yDLcgQNx7lDfl_qG-33" value="" style="rounded=0;whiteSpace=wrap;html=1;fillColor=#d5e8d4;strokeColor=#000000;" vertex="1" parent="1">
          <mxGeometry x="40" y="320" width="80" height="20" as="geometry" />
        </mxCell>
        <mxCell id="2V6-yDLcgQNx7lDfl_qG-34" value="" style="rounded=0;whiteSpace=wrap;html=1;fillColor=#ffe6cc;strokeColor=#000000;" vertex="1" parent="1">
          <mxGeometry x="40" y="340" width="80" height="20" as="geometry" />
        </mxCell>
        <mxCell id="2V6-yDLcgQNx7lDfl_qG-35" value="" style="rounded=0;whiteSpace=wrap;html=1;fillColor=#fff2cc;strokeColor=#000000;" vertex="1" parent="1">
          <mxGeometry x="40" y="360" width="80" height="20" as="geometry" />
        </mxCell>
        <mxCell id="2V6-yDLcgQNx7lDfl_qG-36" value="" style="rounded=0;whiteSpace=wrap;html=1;fillColor=#f8cecc;strokeColor=#000000;" vertex="1" parent="1">
          <mxGeometry x="40" y="380" width="80" height="20" as="geometry" />
        </mxCell>
        <mxCell id="2V6-yDLcgQNx7lDfl_qG-37" value="" style="rounded=0;whiteSpace=wrap;html=1;fillColor=#e1d5e7;strokeColor=#000000;" vertex="1" parent="1">
          <mxGeometry x="40" y="400" width="80" height="20" as="geometry" />
        </mxCell>
        <mxCell id="2V6-yDLcgQNx7lDfl_qG-38" value="" style="rounded=0;whiteSpace=wrap;html=1;fillColor=#dae8fc;strokeColor=default;" vertex="1" parent="1">
          <mxGeometry x="490" y="300" width="20" height="20" as="geometry" />
        </mxCell>
        <mxCell id="2V6-yDLcgQNx7lDfl_qG-39" value="" style="rounded=0;whiteSpace=wrap;html=1;fillColor=#d5e8d4;strokeColor=default;" vertex="1" parent="1">
          <mxGeometry x="490" y="320" width="20" height="20" as="geometry" />
        </mxCell>
        <mxCell id="2V6-yDLcgQNx7lDfl_qG-40" value="" style="rounded=0;whiteSpace=wrap;html=1;fillColor=#ffe6cc;strokeColor=default;" vertex="1" parent="1">
          <mxGeometry x="490" y="340" width="20" height="20" as="geometry" />
        </mxCell>
        <mxCell id="2V6-yDLcgQNx7lDfl_qG-41" value="" style="rounded=0;whiteSpace=wrap;html=1;fillColor=#fff2cc;strokeColor=default;" vertex="1" parent="1">
          <mxGeometry x="490" y="360" width="20" height="20" as="geometry" />
        </mxCell>
        <mxCell id="2V6-yDLcgQNx7lDfl_qG-42" value="" style="rounded=0;whiteSpace=wrap;html=1;fillColor=#f8cecc;strokeColor=default;" vertex="1" parent="1">
          <mxGeometry x="490" y="380" width="20" height="20" as="geometry" />
        </mxCell>
        <mxCell id="2V6-yDLcgQNx7lDfl_qG-43" value="" style="rounded=0;whiteSpace=wrap;html=1;fillColor=#e1d5e7;strokeColor=default;" vertex="1" parent="1">
          <mxGeometry x="490" y="400" width="20" height="20" as="geometry" />
        </mxCell>
        <mxCell id="2V6-yDLcgQNx7lDfl_qG-45" value="" style="rounded=0;whiteSpace=wrap;html=1;fillColor=#dae8fc;strokeColor=default;" vertex="1" parent="1">
          <mxGeometry x="40" y="540" width="40" height="30" as="geometry" />
        </mxCell>
        <mxCell id="2V6-yDLcgQNx7lDfl_qG-46" value="" style="rounded=0;whiteSpace=wrap;html=1;fillColor=#d5e8d4;strokeColor=default;" vertex="1" parent="1">
          <mxGeometry x="80" y="540" width="40" height="30" as="geometry" />
        </mxCell>
        <mxCell id="2V6-yDLcgQNx7lDfl_qG-47" value="" style="rounded=0;whiteSpace=wrap;html=1;fillColor=#ffe6cc;strokeColor=default;" vertex="1" parent="1">
          <mxGeometry x="120" y="540" width="40" height="30" as="geometry" />
        </mxCell>
        <mxCell id="2V6-yDLcgQNx7lDfl_qG-48" value="" style="rounded=0;whiteSpace=wrap;html=1;fillColor=#fff2cc;strokeColor=default;" vertex="1" parent="1">
          <mxGeometry x="160" y="540" width="40" height="30" as="geometry" />
        </mxCell>
        <mxCell id="2V6-yDLcgQNx7lDfl_qG-49" value="" style="rounded=0;whiteSpace=wrap;html=1;fillColor=#dae8fc;strokeColor=default;" vertex="1" parent="1">
          <mxGeometry x="310" y="520" width="20" height="40" as="geometry" />
        </mxCell>
        <mxCell id="2V6-yDLcgQNx7lDfl_qG-52" value="" style="rounded=0;whiteSpace=wrap;html=1;fillColor=#d5e8d4;strokeColor=default;" vertex="1" parent="1">
          <mxGeometry x="310" y="560" width="20" height="40" as="geometry" />
        </mxCell>
        <mxCell id="2V6-yDLcgQNx7lDfl_qG-53" value="" style="rounded=0;whiteSpace=wrap;html=1;fillColor=#ffe6cc;strokeColor=default;" vertex="1" parent="1">
          <mxGeometry x="310" y="600" width="20" height="40" as="geometry" />
        </mxCell>
        <mxCell id="2V6-yDLcgQNx7lDfl_qG-54" value="" style="rounded=0;whiteSpace=wrap;html=1;fillColor=#fff2cc;strokeColor=default;" vertex="1" parent="1">
          <mxGeometry x="310" y="640" width="20" height="40" as="geometry" />
        </mxCell>
        <mxCell id="2V6-yDLcgQNx7lDfl_qG-55" value="" style="rounded=0;whiteSpace=wrap;html=1;fillColor=#A3A3A3;fontColor=#333333;strokeColor=#000000;" vertex="1" parent="1">
          <mxGeometry x="310" y="280" width="20" height="80" as="geometry" />
        </mxCell>
        <mxCell id="2V6-yDLcgQNx7lDfl_qG-56" value="" style="rounded=0;whiteSpace=wrap;html=1;fillColor=#A3A3A3;fontColor=#333333;strokeColor=#000000;" vertex="1" parent="1">
          <mxGeometry x="490" y="540" width="20" height="30" as="geometry" />
        </mxCell>
      </root>
    </mxGraphModel>
  </diagram>
</mxfile>
